<svg version="1.1" viewBox="0.0 0.0 960.0 540.0" fill="none" stroke="none" stroke-linecap="square" stroke-miterlimit="10" xmlns:xlink="http://www.w3.org/1999/xlink" xmlns="http://www.w3.org/2000/svg"><clipPath id="gc6f972163_0_0.0"><path d="m0 0l960.0 0l0 540.0l-960.0 0l0 -540.0z" clip-rule="nonzero"/></clipPath><g clip-path="url(#gc6f972163_0_0.0)"><path fill="#ffffff" d="m0 0l960.0 0l0 540.0l-960.0 0z" fill-rule="evenodd"/><path fill="#000000" fill-opacity="0.0" d="m229.39896 85.11811l562.3307 0l0 265.38583l-562.3307 0z" fill-rule="evenodd"/><path fill="#666666" d="m315.42792 248.94392l0 -51.84375l11.265625 0q5.765625 0 9.125 1.765625q3.359375 1.765625 4.796875 5.28125q1.4375 3.515625 1.4375 8.765625l0 19.078125q0 5.5 -1.4375 9.28125q-1.4375 3.765625 -4.671875 5.71875q-3.234375 1.953125 -8.671875 1.953125l-11.84375 0zm7.234375 -5.1875l4.09375 0q3.96875 0 5.625 -1.53125q1.671875 -1.53125 2.015625 -4.46875q0.359375 -2.953125 0.359375 -7.109375l0 -16.84375q0 -4.03125 -0.515625 -6.515625q-0.5 -2.5 -2.234375 -3.65625q-1.734375 -1.15625 -5.4375 -1.15625l-3.90625 0l0 41.28125zm26.49356 5.1875l0 -51.84375l20.09375 0l0 5.375l-12.859375 0l0 17.15625l10.4375 0l0 5.125l-10.4375 0l0 19.0l12.984375 0l0 5.1875l-20.21875 0zm31.751068 0l0 -46.46875l-8.78125 0l0 -5.375l24.515625 0l0 5.375l-8.515625 0l0 46.46875l-7.21875 0zm26.431976 0l0 -46.46875l-8.78125 0l0 -5.375l24.515625 0l0 5.375l-8.515625 0l0 46.46875l-7.21875 0zm17.78833 0l11.0 -51.84375l6.984375 0l11.0625 51.84375l-6.84375 0l-2.359375 -13.0625l-10.5625 0l-2.5 13.0625l-6.78125 0zm10.234375 -18.234375l8.640625 0l-4.34375 -23.359375l-4.296875 23.359375zm35.909546 18.234375l11.0 -51.84375l6.984375 0l11.0625 51.84375l-6.84375 0l-2.359375 -13.0625l-10.5625 0l-2.5 13.0625l-6.78125 0zm10.234375 -18.234375l8.640625 0l-4.34375 -23.359375l-4.296875 23.359375zm6.34375 -41.34375l0 -7.109375l6.90625 0l0 7.109375l-6.90625 0zm-11.0 0l0 -7.109375l6.90625 0l0 7.109375l-6.90625 0zm28.72232 59.578125l0 -51.84375l10.4375 0q5.171875 0 8.5625 1.375q3.40625 1.375 5.03125 4.421875q1.640625 3.03125 1.640625 7.96875q0 3.0 -0.640625 5.46875q-0.640625 2.46875 -2.0625 4.171875q-1.40625 1.6875 -3.703125 2.453125l7.359375 25.984375l-6.96875 0l-6.796875 -24.3125l-5.625 0l0 24.3125l-7.234375 0zm7.234375 -29.5l2.75 0q3.078125 0 4.984375 -0.765625q1.921875 -0.78125 2.8125 -2.625q0.90625 -1.859375 0.90625 -5.1875q0 -4.546875 -1.671875 -6.5625q-1.65625 -2.015625 -6.578125 -2.015625l-3.203125 0l0 17.15625zm40.637512 29.5l0 -51.84375l20.09375 0l0 5.375l-12.859375 0l0 17.15625l10.4375 0l0 5.125l-10.4375 0l0 19.0l12.984375 0l0 5.1875l-20.21875 0zm26.047974 0l0 -51.84375l4.921875 0l14.734375 34.4375l0 -34.4375l6.015625 0l0 51.84375l-4.609375 0l-14.921875 -35.390625l0 35.390625l-6.140625 0zm60.86975 0.578125q-4.484375 0 -7.296875 -2.265625q-2.8125 -2.28125 -4.125 -6.15625q-1.3125 -3.875 -1.3125 -8.609375l0 -17.46875q0 -5.046875 1.140625 -9.203125q1.15625 -4.171875 3.9375 -6.65625q2.78125 -2.5 7.65625 -2.5q4.03125 0 6.8125 1.46875q2.78125 1.46875 4.28125 4.28125q1.515625 2.8125 1.578125 6.84375q0 0.140625 0.03125 0.359375q0.03125 0.21875 0.03125 0.421875l-6.921875 0q0 -3.78125 -1.21875 -5.765625q-1.203125 -1.984375 -4.59375 -1.984375q-1.859375 0 -3.203125 1.1875q-1.34375 1.1875 -2.015625 3.625q-0.671875 2.421875 -0.671875 6.265625l0 7.859375q1.015625 -1.59375 2.90625 -2.578125q1.890625 -1.0 4.640625 -1.0q4.296875 0 6.71875 1.859375q2.4375 1.859375 3.453125 5.21875q1.03125 3.359375 1.03125 7.90625q0 4.671875 -1.28125 8.515625q-1.28125 3.828125 -4.09375 6.109375q-2.8125 2.265625 -7.484375 2.265625zm0 -5.703125q2.296875 0 3.578125 -1.3125q1.28125 -1.3125 1.828125 -3.484375q0.546875 -2.171875 0.546875 -4.734375q0 -3.078125 -0.296875 -5.6875q-0.28125 -2.625 -1.5 -4.1875q-1.21875 -1.578125 -4.15625 -1.578125q-1.40625 0 -2.5625 0.515625q-1.15625 0.5 -1.984375 1.3125q-0.828125 0.796875 -1.34375 1.6875l0 7.75q0 2.625 0.53125 4.859375q0.546875 2.234375 1.828125 3.546875q1.28125 1.3125 3.53125 1.3125zm32.316956 5.703125q-4.421875 0 -7.265625 -1.984375q-2.84375 -1.984375 -4.21875 -5.4375q-1.375 -3.453125 -1.375 -7.875l0 -22.34375q0 -4.53125 1.34375 -7.953125q1.34375 -3.4375 4.1875 -5.34375q2.84375 -1.921875 7.328125 -1.921875q4.484375 0 7.296875 1.921875q2.8125 1.90625 4.15625 5.34375q1.34375 3.421875 1.34375 7.953125l0 22.34375q0 4.484375 -1.375 7.9375q-1.375 3.453125 -4.203125 5.40625q-2.8125 1.953125 -7.21875 1.953125zm0 -5.640625q2.4375 0 3.671875 -1.40625q1.25 -1.40625 1.734375 -3.609375q0.484375 -2.203125 0.484375 -4.578125l0 -22.46875q0 -2.484375 -0.453125 -4.6875q-0.453125 -2.21875 -1.703125 -3.5625q-1.234375 -1.34375 -3.734375 -1.34375q-2.5 0 -3.78125 1.34375q-1.28125 1.34375 -1.734375 3.5625q-0.4375 2.203125 -0.4375 4.6875l0 22.46875q0 2.375 0.46875 4.578125q0.484375 2.203125 1.796875 3.609375q1.3125 1.40625 3.6875 1.40625zm19.650452 -11.640625l0 -5.1875l14.265625 0l0 5.1875l-14.265625 0z" fill-rule="nonzero"/><path fill="#666666" d="m361.0313 325.94394l11.0 -51.84375l6.984375 0l11.0625 51.84375l-6.84375 0l-2.359375 -13.0625l-10.5625 0l-2.5 13.0625l-6.78125 0zm10.234375 -18.234375l8.640625 0l-4.34375 -23.359375l-4.296875 23.359375zm4.296875 -34.75q-3.203125 0 -5.1875 -1.953125q-1.984375 -1.953125 -1.984375 -5.21875q0 -3.265625 1.984375 -5.1875q1.984375 -1.921875 5.1875 -1.921875q3.203125 0 5.1875 1.921875q1.984375 1.921875 1.984375 5.1875q0 3.265625 -1.984375 5.21875q-1.984375 1.953125 -5.1875 1.953125zm0 -3.453125q1.65625 0 2.6875 -0.984375q1.03125 -1.0 1.03125 -2.734375q0 -1.796875 -1.03125 -2.75q-1.03125 -0.96875 -2.6875 -0.96875q-1.734375 0 -2.734375 0.96875q-0.984375 0.953125 -0.984375 2.75q0 1.734375 0.984375 2.734375q1.0 0.984375 2.734375 0.984375zm19.769196 56.4375l0 -51.84375l10.4375 0q5.171875 0 8.5625 1.375q3.40625 1.375 5.03125 4.421875q1.640625 3.03125 1.640625 7.96875q0 3.0 -0.640625 5.46875q-0.640625 2.46875 -2.0625 4.171875q-1.40625 1.6875 -3.703125 2.453125l7.359375 25.984375l-6.96875 0l-6.796875 -24.3125l-5.625 0l0 24.3125l-7.234375 0zm7.234375 -29.5l2.75 0q3.078125 0 4.984375 -0.765625q1.921875 -0.78125 2.8125 -2.625q0.90625 -1.859375 0.90625 -5.1875q0 -4.546875 -1.671875 -6.5625q-1.65625 -2.015625 -6.578125 -2.015625l-3.203125 0l0 17.15625zm38.200317 30.078125q-4.46875 0 -7.453125 -1.921875q-2.96875 -1.921875 -4.515625 -5.3125q-1.53125 -3.390625 -1.78125 -7.875l6.390625 -1.71875q0.203125 2.75 0.875 5.3125q0.671875 2.546875 2.203125 4.1875q1.53125 1.625 4.28125 1.625q2.828125 0 4.265625 -1.5625q1.4375 -1.5625 1.4375 -4.515625q0 -3.515625 -1.609375 -5.65625q-1.59375 -2.15625 -4.03125 -4.328125l-8.703125 -7.671875q-2.546875 -2.25 -3.765625 -4.90625q-1.21875 -2.65625 -1.21875 -6.546875q0 -5.703125 3.265625 -8.828125q3.265625 -3.140625 8.890625 -3.140625q3.078125 0 5.40625 0.796875q2.34375 0.796875 3.90625 2.46875q1.5625 1.65625 2.484375 4.1875q0.9375 2.53125 1.265625 5.921875l-6.140625 1.65625q-0.203125 -2.5625 -0.78125 -4.703125q-0.5625 -2.140625 -2.015625 -3.453125q-1.4375 -1.3125 -4.125 -1.3125q-2.6875 0 -4.1875 1.4375q-1.5 1.4375 -1.5 4.25q0 2.375 0.796875 3.921875q0.796875 1.53125 2.59375 3.125l8.765625 7.6875q2.9375 2.546875 5.171875 6.109375q2.25 3.546875 2.25 8.40625q0 3.84375 -1.609375 6.625q-1.59375 2.78125 -4.375 4.265625q-2.78125 1.46875 -6.4375 1.46875zm18.053192 -0.578125l0 -51.84375l12.859375 0q4.671875 0 7.453125 1.703125q2.796875 1.6875 4.078125 4.890625q1.28125 3.203125 1.28125 7.75q0 4.09375 -1.453125 7.109375q-1.4375 3.0 -4.25 4.640625q-2.8125 1.625 -7.046875 1.625l-5.6875 0l0 24.125l-7.234375 0zm7.234375 -29.3125l3.328125 0q3.140625 0 4.921875 -0.703125q1.796875 -0.703125 2.5625 -2.453125q0.765625 -1.765625 0.765625 -4.96875q0 -3.71875 -0.546875 -5.703125q-0.53125 -1.984375 -2.265625 -2.75q-1.734375 -0.765625 -5.375 -0.765625l-3.390625 0l0 17.34375zm23.485565 29.3125l0 -51.84375l10.4375 0q5.171875 0 8.5625 1.375q3.40625 1.375 5.0312195 4.421875q1.640625 3.03125 1.640625 7.96875q0 3.0 -0.640625 5.46875q-0.640625 2.46875 -2.0625 4.171875q-1.4062195 1.6875 -3.7030945 2.453125l7.3593445 25.984375l-6.9687195 0l-6.796875 -24.3125l-5.625 0l0 24.3125l-7.234375 0zm7.234375 -29.5l2.75 0q3.078125 0 4.984375 -0.765625q1.921875 -0.78125 2.8125 -2.625q0.90625 -1.859375 0.90625 -5.1875q0 -4.546875 -1.671875 -6.5625q-1.65625 -2.015625 -6.578125 -2.015625l-3.203125 0l0 17.15625zm25.981537 29.5l0 -51.84375l20.09375 0l0 5.375l-12.859375 0l0 17.15625l10.4375 0l0 5.125l-10.4375 0l0 19.0l12.984375 0l0 5.1875l-20.21875 0zm38.266724 0.578125q-4.46875 0 -7.453125 -1.921875q-2.96875 -1.921875 -4.515625 -5.3125q-1.53125 -3.390625 -1.78125 -7.875l6.390625 -1.71875q0.203125 2.75 0.875 5.3125q0.671875 2.546875 2.203125 4.1875q1.53125 1.625 4.28125 1.625q2.828125 0 4.265625 -1.5625q1.4375 -1.5625 1.4375 -4.515625q0 -3.515625 -1.609375 -5.65625q-1.59375 -2.15625 -4.03125 -4.328125l-8.703125 -7.671875q-2.546875 -2.25 -3.765625 -4.90625q-1.21875 -2.65625 -1.21875 -6.546875q0 -5.703125 3.265625 -8.828125q3.265625 -3.140625 8.890625 -3.140625q3.078125 0 5.40625 0.796875q2.34375 0.796875 3.90625 2.46875q1.5625 1.65625 2.484375 4.1875q0.9375 2.53125 1.265625 5.921875l-6.140625 1.65625q-0.203125 -2.5625 -0.78125 -4.703125q-0.5625 -2.140625 -2.015625 -3.453125q-1.4375 -1.3125 -4.125 -1.3125q-2.6875 0 -4.1875 1.4375q-1.5 1.4375 -1.5 4.25q0 2.375 0.796875 3.921875q0.796875 1.53125 2.59375 3.125l8.765625 7.6875q2.9375 2.546875 5.171875 6.109375q2.25 3.546875 2.25 8.40625q0 3.84375 -1.609375 6.625q-1.59375 2.78125 -4.375 4.265625q-2.78125 1.46875 -6.4375 1.46875zm18.053223 -0.578125l0 -51.84375l20.09375 0l0 5.375l-12.859375 0l0 17.15625l10.4375 0l0 5.125l-10.4375 0l0 19.0l12.984375 0l0 5.1875l-20.21875 0zm26.047913 0l0 -51.84375l4.921875 0l14.734375 34.4375l0 -34.4375l6.015625 0l0 51.84375l-4.609375 0l-14.921875 -35.390625l0 35.390625l-6.140625 0zm39.495117 0l0 -46.46875l-8.78125 0l0 -5.375l24.515625 0l0 5.375l-8.515625 0l0 46.46875l-7.21875 0z" fill-rule="nonzero"/></g></svg>