<svg version="1.1" viewBox="0.0 0.0 960.0 540.0" fill="none" stroke="none" stroke-linecap="square" stroke-miterlimit="10" xmlns:xlink="http://www.w3.org/1999/xlink" xmlns="http://www.w3.org/2000/svg"><clipPath id="gc6f972163_0_43.0"><path d="m0 0l960.0 0l0 540.0l-960.0 0l0 -540.0z" clip-rule="nonzero"/></clipPath><g clip-path="url(#gc6f972163_0_43.0)"><path fill="#eb1e95" d="m0 0l960.0 0l0 540.0l-960.0 0z" fill-rule="evenodd"/><path fill="#000000" fill-opacity="0.0" d="m51.46982 55.259842l589.8898 0l0 429.4803l-589.8898 0z" fill-rule="evenodd"/><path fill="#ffffff" d="m106.32919 202.15125l0 1.4375q-1.359375 0.28125 -2.90625 1.65625q-1.546875 1.359375 -2.78125 4.609375l-16.921875 43.625q-0.140625 0 -0.28125 0q-0.140625 0 -0.28125 0q-0.15625 0 -0.296875 0q-0.140625 0 -0.28125 0l-17.578125 -45.28125q-1.078125 -2.734375 -2.453125 -3.640625q-1.359375 -0.90625 -2.515625 -0.96875l0 -1.4375q1.453125 0.0625 3.5625 0.140625q2.125 0.0625 4.140625 0.0625q2.8125 0 5.25 -0.0625q2.453125 -0.078125 3.96875 -0.140625l0 1.4375q-2.4375 0.0625 -3.703125 0.578125q-1.265625 0.5 -1.375 1.765625q-0.109375 1.25 0.828125 3.703125l13.390625 35.5l-1.140625 1.21875l12.53125 -32.546875q1.5 -3.890625 1.421875 -6.078125q-0.0625 -2.203125 -1.65625 -3.140625q-1.578125 -0.9375 -4.59375 -1.0l0 -1.4375q2.078125 0.0625 4.234375 0.140625q2.171875 0.0625 4.046875 0.0625q1.875 0 3.09375 -0.0625q1.21875 -0.078125 2.296875 -0.140625zm7.4211426 51.46875q-2.953125 0 -5.109375 -1.109375q-2.15625 -1.125 -3.28125 -3.140625q-1.109375 -2.015625 -1.109375 -4.671875q0 -3.171875 1.46875 -5.1875q1.484375 -2.015625 3.78125 -3.234375q2.3125 -1.234375 4.859375 -2.0625q2.5625 -0.828125 4.859375 -1.578125q2.3125 -0.75 3.78125 -1.75q1.484375 -1.015625 1.484375 -2.671875l0 -4.46875q0 -3.03125 -0.90625 -4.609375q-0.90625 -1.578125 -2.421875 -2.109375q-1.5 -0.546875 -3.375 -0.546875q-1.796875 0 -3.859375 0.5q-2.046875 0.5 -3.265625 2.078125q1.359375 0.296875 2.359375 1.453125q1.015625 1.140625 1.015625 2.953125q0 1.796875 -1.15625 2.84375q-1.140625 1.03125 -2.9375 1.03125q-2.09375 0 -3.0625 -1.328125q-0.96875 -1.328125 -0.96875 -2.984375q0 -1.875 0.9375 -3.015625q0.9375 -1.15625 2.375 -2.171875q1.65625 -1.15625 4.28125 -1.984375q2.625 -0.828125 5.9375 -0.828125q2.953125 0 5.03125 0.6875q2.09375 0.6875 3.46875 1.984375q1.875 1.71875 2.4375 4.203125q0.578125 2.484375 0.578125 5.953125l0 20.015625q0 1.796875 0.53125 2.59375q0.546875 0.78125 1.703125 0.78125q0.796875 0 1.515625 -0.359375q0.71875 -0.359375 1.71875 -1.15625l0.796875 1.234375q-1.515625 1.140625 -2.890625 1.90625q-1.359375 0.75 -3.65625 0.75q-2.09375 0 -3.46875 -0.71875q-1.359375 -0.71875 -2.046875 -2.125q-0.671875 -1.40625 -0.671875 -3.5625q-1.953125 3.25 -4.65625 4.828125q-2.6875 1.578125 -6.078125 1.578125zm2.59375 -2.875q2.375 0 4.421875 -1.359375q2.0625 -1.375 3.71875 -4.109375l0 -14.109375q-0.875 1.21875 -2.53125 2.046875q-1.65625 0.828125 -3.609375 1.65625q-1.9375 0.828125 -3.703125 1.953125q-1.75 1.109375 -2.90625 2.90625q-1.15625 1.796875 -1.15625 4.671875q0 2.890625 1.546875 4.625q1.546875 1.71875 4.21875 1.71875zm55.793518 -54.078125l0 48.609375q0 3.234375 1.1875 4.78125q1.1875 1.546875 4.28125 1.546875l0 1.515625q-2.21875 -0.21875 -4.453125 -0.21875q-2.09375 0 -4.0 0.21875q-1.90625 0.21875 -3.484375 0.796875l0 -48.609375q0 -3.234375 -1.15625 -4.78125q-1.15625 -1.546875 -4.328125 -1.546875l0 -1.515625q2.3125 0.21875 4.46875 0.21875q2.09375 0 4.0 -0.25q1.90625 -0.25 3.484375 -0.765625zm-15.109375 18.359375q3.15625 0 5.921875 1.515625q2.78125 1.515625 3.71875 5.1875l-0.9375 0.71875q-1.0 -3.03125 -3.125 -4.390625q-2.125 -1.375 -5.015625 -1.375q-4.234375 0 -7.078125 4.40625q-2.84375 4.390625 -2.78125 13.53125q0 5.828125 1.109375 9.6875q1.125 3.84375 3.3125 5.75q2.203125 1.90625 5.375 1.90625q3.015625 0 5.46875 -2.59375q2.453125 -2.59375 2.953125 -7.625l0.859375 1.0q-0.578125 5.484375 -3.5 8.4375q-2.90625 2.953125 -7.875 2.953125q-4.453125 0 -7.8125 -2.15625q-3.34375 -2.171875 -5.109375 -6.484375q-1.765625 -4.328125 -1.765625 -10.875q0 -6.5625 2.265625 -10.90625q2.265625 -4.359375 5.96875 -6.515625q3.71875 -2.171875 8.046875 -2.171875zm54.9944 0q2.890625 0 4.90625 0.9375q2.015625 0.9375 2.953125 1.734375q2.375 1.9375 2.875 -2.59375l1.65625 0q-0.140625 2.015625 -0.21875 4.796875q-0.0625 2.765625 -0.0625 7.4375l-1.65625 0q-0.4375 -2.65625 -1.484375 -5.171875q-1.046875 -2.53125 -3.0625 -4.140625q-2.015625 -1.625 -5.25 -1.625q-2.515625 0 -4.21875 1.40625q-1.6875 1.40625 -1.6875 4.140625q0 2.15625 1.296875 3.703125q1.296875 1.546875 3.375 2.890625q2.09375 1.328125 4.546875 2.90625q2.734375 1.734375 4.96875 3.53125q2.234375 1.796875 3.5625 3.953125q1.328125 2.15625 1.328125 5.109375q0 3.3125 -1.734375 5.546875q-1.71875 2.234375 -4.5 3.390625q-2.765625 1.15625 -6.078125 1.15625q-1.578125 0 -2.984375 -0.265625q-1.40625 -0.25 -2.703125 -0.75q-0.71875 -0.359375 -1.484375 -0.859375q-0.75 -0.515625 -1.46875 -1.078125q-0.71875 -0.578125 -1.296875 0.03125q-0.578125 0.609375 -0.859375 2.40625l-1.65625 0q0.140625 -2.296875 0.203125 -5.609375q0.078125 -3.3125 0.078125 -8.78125l1.65625 0q0.515625 4.03125 1.453125 7.0625q0.9375 3.015625 2.953125 4.703125q2.015625 1.6875 5.609375 1.6875q1.4375 0 2.90625 -0.640625q1.484375 -0.65625 2.484375 -2.15625q1.015625 -1.515625 1.015625 -4.03125q0 -3.171875 -2.3125 -5.1875q-2.296875 -2.015625 -5.828125 -4.25q-2.59375 -1.65625 -4.859375 -3.3125q-2.265625 -1.65625 -3.671875 -3.734375q-1.40625 -2.09375 -1.40625 -5.046875q0 -3.25 1.46875 -5.296875q1.484375 -2.046875 3.9375 -3.015625q2.453125 -0.984375 5.25 -0.984375zm30.60588 -18.359375l0 49.75q0 3.03125 1.078125 4.109375q1.078125 1.078125 3.671875 1.078125l0 1.515625q-1.15625 -0.078125 -3.421875 -0.171875q-2.265625 -0.109375 -4.5625 -0.109375q-2.453125 0 -4.984375 0.109375q-2.515625 0.09375 -3.734375 0.171875l0 -1.515625q2.953125 0 4.203125 -1.078125q1.265625 -1.078125 1.265625 -4.109375l0 -41.109375q0 -3.234375 -1.15625 -4.78125q-1.140625 -1.546875 -4.3125 -1.546875l0 -1.515625q2.3125 0.21875 4.46875 0.21875q2.078125 0 3.984375 -0.25q1.921875 -0.25 3.5 -0.765625zm22.890625 19.375l0 1.4375q-1.796875 0.140625 -3.390625 0.96875q-1.578125 0.828125 -3.078125 2.421875l-10.15625 10.65625l1.0 -2.015625l13.40625 18.359375q1.21875 1.65625 2.328125 2.59375q1.125 0.921875 2.703125 1.140625l0 1.515625q-0.796875 -0.078125 -2.484375 -0.171875q-1.6875 -0.109375 -3.34375 -0.109375q-2.234375 0 -4.546875 0.109375q-2.296875 0.09375 -3.453125 0.171875l0 -1.515625q1.453125 0 2.015625 -0.71875q0.578125 -0.71875 -0.203125 -1.71875l-8.28125 -12.109375q-1.375 -1.9375 -2.5 -2.515625q-1.109375 -0.578125 -3.1875 -0.640625l0 -1.4375q2.296875 -0.296875 3.734375 -0.96875q1.4375 -0.6875 2.734375 -2.0625l5.328125 -5.546875q2.3125 -2.375 2.3125 -3.78125q0 -1.40625 -1.484375 -2.015625q-1.46875 -0.609375 -3.84375 -0.609375l0 -1.4375q1.875 0.0625 4.203125 0.171875q2.34375 0.109375 3.9375 0.109375q1.21875 0 2.359375 -0.03125q1.15625 -0.03125 2.15625 -0.109375q1.015625 -0.078125 1.734375 -0.140625zm14.911255 37.578125q-2.953125 0 -5.109375 -1.109375q-2.15625 -1.125 -3.28125 -3.140625q-1.109375 -2.015625 -1.109375 -4.671875q0 -3.171875 1.46875 -5.1875q1.484375 -2.015625 3.78125 -3.234375q2.3125 -1.234375 4.859375 -2.0625q2.5625 -0.828125 4.859375 -1.578125q2.3125 -0.75 3.78125 -1.75q1.484375 -1.015625 1.484375 -2.671875l0 -4.46875q0 -3.03125 -0.90625 -4.609375q-0.90625 -1.578125 -2.421875 -2.109375q-1.5 -0.546875 -3.375 -0.546875q-1.796875 0 -3.859375 0.5q-2.046875 0.5 -3.265625 2.078125q1.359375 0.296875 2.359375 1.453125q1.015625 1.140625 1.015625 2.953125q0 1.796875 -1.15625 2.84375q-1.140625 1.03125 -2.9375 1.03125q-2.09375 0 -3.0625 -1.328125q-0.96875 -1.328125 -0.96875 -2.984375q0 -1.875 0.9375 -3.015625q0.9375 -1.15625 2.375 -2.171875q1.65625 -1.15625 4.28125 -1.984375q2.625 -0.828125 5.9375 -0.828125q2.953125 0 5.03125 0.6875q2.09375 0.6875 3.46875 1.984375q1.875 1.71875 2.4375 4.203125q0.578125 2.484375 0.578125 5.953125l0 20.015625q0 1.796875 0.53125 2.59375q0.546875 0.78125 1.703125 0.78125q0.796875 0 1.515625 -0.359375q0.71875 -0.359375 1.71875 -1.15625l0.796875 1.234375q-1.515625 1.140625 -2.890625 1.90625q-1.359375 0.75 -3.65625 0.75q-2.09375 0 -3.46875 -0.71875q-1.359375 -0.71875 -2.046875 -2.125q-0.671875 -1.40625 -0.671875 -3.5625q-1.953125 3.25 -4.65625 4.828125q-2.6875 1.578125 -6.078125 1.578125zm2.59375 -2.875q2.375 0 4.421875 -1.359375q2.0625 -1.375 3.71875 -4.109375l0 -14.109375q-0.875 1.21875 -2.53125 2.046875q-1.65625 0.828125 -3.609375 1.65625q-1.9375 0.828125 -3.703125 1.953125q-1.75 1.109375 -2.90625 2.90625q-1.15625 1.796875 -1.15625 4.671875q0 2.890625 1.546875 4.625q1.546875 1.71875 4.21875 1.71875zm71.12616 -34.703125l0 1.4375q-1.359375 0.140625 -2.515625 1.21875q-1.15625 1.078125 -2.15625 3.828125l-11.8125 30.953125q-0.28125 0 -0.578125 0q-0.28125 0 -0.640625 0l-13.25 -31.890625q-1.15625 -2.8125 -2.28125 -3.421875q-1.109375 -0.609375 -1.890625 -0.609375l0 -1.515625q1.4375 0.0625 2.984375 0.171875q1.546875 0.109375 3.34375 0.109375q2.234375 0 4.71875 -0.0625q2.484375 -0.078125 4.640625 -0.21875l0 1.515625q-1.796875 0 -3.203125 0.25q-1.40625 0.25 -1.796875 1.40625q-0.390625 1.140625 0.6875 3.953125l9.0 22.25l-0.4375 0.359375l8.21875 -21.53125q0.921875 -2.375 0.734375 -3.78125q-0.171875 -1.40625 -1.4375 -2.125q-1.25 -0.71875 -3.84375 -0.859375l0 -1.4375q1.296875 0.0625 2.234375 0.109375q0.9375 0.03125 1.828125 0.078125q0.90625 0.03125 1.984375 0.03125q1.65625 0 2.984375 -0.078125q1.34375 -0.078125 2.484375 -0.140625zm10.520508 -18.0q1.875 0 3.234375 1.375q1.375 1.359375 1.375 3.234375q0 1.875 -1.375 3.25q-1.359375 1.359375 -3.234375 1.359375q-1.875 0 -3.25 -1.359375q-1.359375 -1.375 -1.359375 -3.25q0 -1.875 1.359375 -3.234375q1.375 -1.375 3.25 -1.375zm3.75 17.203125l0 31.171875q0 3.03125 1.25 4.109375q1.265625 1.078125 4.21875 1.078125l0 1.515625q-1.234375 -0.078125 -3.71875 -0.171875q-2.484375 -0.109375 -5.0 -0.109375q-2.4375 0 -4.96875 0.109375q-2.515625 0.09375 -3.734375 0.171875l0 -1.515625q2.953125 0 4.203125 -1.078125q1.265625 -1.078125 1.265625 -4.109375l0 -22.53125q0 -3.234375 -1.15625 -4.78125q-1.15625 -1.546875 -4.3125 -1.546875l0 -1.515625q2.296875 0.21875 4.453125 0.21875q2.09375 0 4.0 -0.25q1.90625 -0.265625 3.5 -0.765625zm36.207764 -18.5l0 26.921875q1.875 -4.890625 5.21875 -6.765625q3.34375 -1.875 7.015625 -1.875q2.75 0 4.578125 0.734375q1.84375 0.71875 3.0625 2.0q1.359375 1.453125 1.9375 3.609375q0.578125 2.15625 0.578125 5.828125l0 19.21875q0 3.03125 1.25 4.109375q1.265625 1.078125 4.21875 1.078125l0 1.515625q-1.21875 -0.078125 -3.75 -0.171875q-2.515625 -0.109375 -4.890625 -0.109375q-2.375 0 -4.640625 0.109375q-2.265625 0.09375 -3.421875 0.171875l0 -1.515625q2.59375 0 3.671875 -1.078125q1.078125 -1.078125 1.078125 -4.109375l0 -20.796875q0 -2.234375 -0.359375 -4.109375q-0.359375 -1.875 -1.625 -3.015625q-1.25 -1.15625 -3.84375 -1.15625q-2.953125 0 -5.21875 1.65625q-2.265625 1.65625 -3.5625 4.609375q-1.296875 2.953125 -1.296875 6.765625l0 16.046875q0 3.03125 1.078125 4.109375q1.078125 1.078125 3.671875 1.078125l0 1.515625q-1.15625 -0.078125 -3.421875 -0.171875q-2.265625 -0.109375 -4.640625 -0.109375q-2.375 0 -4.90625 0.109375q-2.515625 0.09375 -3.734375 0.171875l0 -1.515625q2.953125 0 4.203125 -1.078125q1.265625 -1.078125 1.265625 -4.109375l0 -41.03125q0 -3.234375 -1.15625 -4.78125q-1.140625 -1.5625 -4.3125 -1.5625l0 -1.5q2.3125 0.203125 4.46875 0.203125q2.078125 0 3.984375 -0.25q1.921875 -0.25 3.5 -0.75zm39.24225 1.296875q1.875 0 3.234375 1.375q1.375 1.359375 1.375 3.234375q0 1.875 -1.375 3.25q-1.359375 1.359375 -3.234375 1.359375q-1.875 0 -3.25 -1.359375q-1.359375 -1.375 -1.359375 -3.25q0 -1.875 1.359375 -3.234375q1.375 -1.375 3.25 -1.375zm3.75 17.203125l0 31.171875q0 3.03125 1.25 4.109375q1.265625 1.078125 4.21875 1.078125l0 1.515625q-1.234375 -0.078125 -3.71875 -0.171875q-2.484375 -0.109375 -5.0 -0.109375q-2.4375 0 -4.96875 0.109375q-2.515625 0.09375 -3.734375 0.171875l0 -1.515625q2.953125 0 4.203125 -1.078125q1.265625 -1.078125 1.265625 -4.109375l0 -22.53125q0 -3.234375 -1.15625 -4.78125q-1.15625 -1.546875 -4.3125 -1.546875l0 -1.515625q2.296875 0.21875 4.453125 0.21875q2.09375 0 4.0 -0.25q1.90625 -0.265625 3.5 -0.765625zm20.736633 -11.15625l0 12.015625l10.65625 0l0 1.453125l-10.65625 0l0 27.859375q0 3.390625 1.21875 4.765625q1.21875 1.359375 3.375 1.359375q2.171875 0 3.75 -1.765625q1.578125 -1.765625 2.734375 -5.9375l1.4375 0.359375q-0.71875 4.171875 -2.84375 7.0625q-2.125 2.875 -6.515625 2.875q-2.4375 0 -4.03125 -0.625q-1.578125 -0.609375 -2.796875 -1.765625q-1.59375 -1.65625 -2.203125 -3.953125q-0.609375 -2.296875 -0.609375 -6.125l0 -24.109375l-6.921875 0l0 -1.453125l6.921875 0l0 -11.015625q1.796875 -0.0625 3.453125 -0.28125q1.65625 -0.21875 3.03125 -0.71875zm22.608002 0l0 12.015625l10.65625 0l0 1.453125l-10.65625 0l0 27.859375q0 3.390625 1.21875 4.765625q1.21875 1.359375 3.375 1.359375q2.171875 0 3.75 -1.765625q1.578125 -1.765625 2.734375 -5.9375l1.4375 0.359375q-0.71875 4.171875 -2.84375 7.0625q-2.125 2.875 -6.515625 2.875q-2.4375 0 -4.03125 -0.625q-1.578125 -0.609375 -2.796875 -1.765625q-1.59375 -1.65625 -2.203125 -3.953125q-0.609375 -2.296875 -0.609375 -6.125l0 -24.109375l-6.921875 0l0 -1.453125l6.921875 0l0 -11.015625q1.796875 -0.0625 3.453125 -0.28125q1.65625 -0.21875 3.03125 -0.71875zm24.112976 49.53125q-2.953125 0 -5.1093445 -1.109375q-2.15625 -1.125 -3.28125 -3.140625q-1.109375 -2.015625 -1.109375 -4.671875q0 -3.171875 1.46875 -5.1875q1.484375 -2.015625 3.78125 -3.234375q2.3124695 -1.234375 4.8593445 -2.0625q2.5625 -0.828125 4.859375 -1.578125q2.3125 -0.75 3.78125 -1.75q1.484375 -1.015625 1.484375 -2.671875l0 -4.46875q0 -3.03125 -0.90625 -4.609375q-0.90625 -1.578125 -2.421875 -2.109375q-1.5 -0.546875 -3.375 -0.546875q-1.796875 0 -3.859375 0.5q-2.046875 0.5 -3.2655945 2.078125q1.3593445 0.296875 2.3593445 1.453125q1.015625 1.140625 1.015625 2.953125q0 1.796875 -1.15625 2.84375q-1.140625 1.03125 -2.9374695 1.03125q-2.09375 0 -3.0625 -1.328125q-0.96875 -1.328125 -0.96875 -2.984375q0 -1.875 0.9375 -3.015625q0.9375 -1.15625 2.375 -2.171875q1.6562195 -1.15625 4.2812195 -1.984375q2.625 -0.828125 5.9375 -0.828125q2.953125 0 5.03125 0.6875q2.09375 0.6875 3.46875 1.984375q1.875 1.71875 2.4375 4.203125q0.578125 2.484375 0.578125 5.953125l0 20.015625q0 1.796875 0.53125 2.59375q0.546875 0.78125 1.703125 0.78125q0.796875 0 1.515625 -0.359375q0.71875 -0.359375 1.71875 -1.15625l0.796875 1.234375q-1.515625 1.140625 -2.890625 1.90625q-1.359375 0.75 -3.65625 0.75q-2.09375 0 -3.46875 -0.71875q-1.359375 -0.71875 -2.046875 -2.125q-0.671875 -1.40625 -0.671875 -3.5625q-1.953125 3.25 -4.65625 4.828125q-2.6875 1.578125 -6.078125 1.578125zm2.59375 -2.875q2.375 0 4.421875 -1.359375q2.0625 -1.375 3.71875 -4.109375l0 -14.109375q-0.875 1.21875 -2.53125 2.046875q-1.65625 0.828125 -3.609375 1.65625q-1.9375 0.828125 -3.703125 1.953125q-1.75 1.109375 -2.90625 2.90625q-1.1562195 1.796875 -1.1562195 4.671875q0 2.890625 1.5468445 4.625q1.546875 1.71875 4.21875 1.71875z" fill-rule="nonzero"/><path fill="#ffffff" d="m74.00107 301.24503l0 44.21875q0 3.09375 1.828125 4.125q1.84375 1.046875 5.09375 1.046875l0 1.515625q-1.59375 -0.078125 -4.40625 -0.1875q-2.796875 -0.09375 -5.96875 -0.09375q-2.234375 0 -4.4375 0.09375q-2.1875 0.109375 -3.34375 0.1875l0 -1.515625q2.59375 0 3.671875 -0.9375q1.09375 -0.9375 1.09375 -3.515625l0 -36.296875q0 -3.234375 -1.15625 -4.78125q-1.15625 -1.546875 -4.328125 -1.546875l0 -1.515625q2.3125 0.21875 4.46875 0.21875q2.09375 0 4.0 -0.25q1.90625 -0.265625 3.484375 -0.765625zm11.53125 -0.21875q3.8125 0 6.828125 2.0625q3.03125 2.046875 4.796875 6.015625q1.765625 3.953125 1.765625 9.78125q0 3.890625 -0.9375 7.671875q-0.9375 3.78125 -2.921875 6.84375q-1.984375 3.0625 -5.109375 4.90625q-3.125 1.828125 -7.53125 1.828125q-3.375 0 -5.859375 -1.578125q-2.484375 -1.59375 -3.34375 -3.828125l0.71875 -1.015625q1.0 2.015625 2.90625 3.390625q1.90625 1.375 4.796875 1.375q4.03125 0 6.25 -2.515625q2.234375 -2.53125 3.140625 -6.734375q0.90625 -4.21875 0.90625 -9.328125q0 -5.765625 -0.9375 -9.4375q-0.9375 -3.671875 -2.8125 -5.46875q-1.875 -1.796875 -4.609375 -1.796875q-3.53125 0 -6.40625 2.921875q-2.875 2.90625 -3.671875 8.8125l-0.859375 -1.015625q0.78125 -6.109375 4.34375 -9.5q3.578125 -3.390625 8.546875 -3.390625zm29.082016 38.59375q-2.953125 0 -5.109375 -1.109375q-2.15625 -1.125 -3.28125 -3.140625q-1.109375 -2.015625 -1.109375 -4.671875q0 -3.171875 1.46875 -5.1875q1.484375 -2.015625 3.78125 -3.234375q2.3125 -1.234375 4.859375 -2.0625q2.5625 -0.828125 4.859375 -1.578125q2.3125 -0.75 3.78125 -1.75q1.484375 -1.015625 1.484375 -2.671875l0 -4.46875q0 -3.03125 -0.90625 -4.609375q-0.90625 -1.578125 -2.421875 -2.109375q-1.5 -0.546875 -3.375 -0.546875q-1.796875 0 -3.859375 0.5q-2.046875 0.5 -3.265625 2.078125q1.359375 0.296875 2.359375 1.453125q1.015625 1.140625 1.015625 2.953125q0 1.796875 -1.15625 2.84375q-1.140625 1.03125 -2.9375 1.03125q-2.09375 0 -3.0625 -1.328125q-0.96875 -1.328125 -0.96875 -2.984375q0 -1.875 0.9375 -3.015625q0.9375 -1.15625 2.375 -2.171875q1.65625 -1.15625 4.28125 -1.984375q2.625 -0.828125 5.9375 -0.828125q2.953125 0 5.03125 0.6875q2.09375 0.6875 3.46875 1.984375q1.875 1.71875 2.4375 4.203125q0.578125 2.484375 0.578125 5.953125l0 20.015625q0 1.796875 0.53125 2.59375q0.546875 0.78125 1.703125 0.78125q0.796875 0 1.515625 -0.359375q0.71875 -0.359375 1.71875 -1.15625l0.796875 1.234375q-1.515625 1.140625 -2.890625 1.90625q-1.359375 0.75 -3.65625 0.75q-2.09375 0 -3.46875 -0.71875q-1.359375 -0.71875 -2.046875 -2.125q-0.671875 -1.40625 -0.671875 -3.5625q-1.953125 3.25 -4.65625 4.828125q-2.6875 1.578125 -6.078125 1.578125zm2.59375 -2.875q2.375 0 4.421875 -1.359375q2.0625 -1.375 3.71875 -4.109375l0 -14.109375q-0.875 1.21875 -2.53125 2.046875q-1.65625 0.828125 -3.609375 1.65625q-1.9375 0.828125 -3.703125 1.953125q-1.75 1.109375 -2.90625 2.90625q-1.15625 1.796875 -1.15625 4.671875q0 2.890625 1.546875 4.625q1.546875 1.71875 4.21875 1.71875zm2.8125 -54.578125q2.796875 0 4.890625 1.765625q2.09375 1.765625 2.09375 4.78125q0 3.109375 -2.09375 4.875q-2.09375 1.75 -4.890625 1.75q-2.734375 0 -4.828125 -1.75q-2.09375 -1.765625 -2.09375 -4.875q0 -3.015625 2.09375 -4.78125q2.09375 -1.765625 4.828125 -1.765625zm0 1.515625q-1.734375 0 -3.328125 1.296875q-1.578125 1.296875 -1.578125 3.8125q0 2.515625 1.578125 3.78125q1.59375 1.265625 3.328125 1.265625q1.796875 0 3.375 -1.265625q1.59375 -1.265625 1.59375 -3.78125q0 -2.515625 -1.59375 -3.8125q-1.578125 -1.296875 -3.375 -1.296875zm61.48253 17.34375q2.734375 0 4.5625 0.734375q1.84375 0.71875 3.0625 2.0q1.375 1.453125 1.953125 3.609375q0.578125 2.15625 0.578125 5.828125l0 19.21875q0 3.03125 1.25 4.109375q1.265625 1.078125 4.21875 1.078125l0 1.515625q-1.21875 -0.078125 -3.75 -0.171875q-2.515625 -0.109375 -4.890625 -0.109375q-2.375 0 -4.640625 0.109375q-2.265625 0.09375 -3.421875 0.171875l0 -1.515625q2.59375 0 3.671875 -1.078125q1.078125 -1.078125 1.078125 -4.109375l0 -20.796875q0 -2.234375 -0.359375 -4.109375q-0.359375 -1.875 -1.625 -3.015625q-1.25 -1.15625 -3.84375 -1.15625q-3.03125 0 -5.296875 1.734375q-2.265625 1.71875 -3.53125 4.703125q-1.25 2.984375 -1.25 6.65625l0 15.984375q0 3.03125 1.078125 4.109375q1.078125 1.078125 3.671875 1.078125l0 1.515625q-1.15625 -0.078125 -3.421875 -0.171875q-2.265625 -0.109375 -4.640625 -0.109375q-2.375 0 -4.90625 0.109375q-2.515625 0.09375 -3.734375 0.171875l0 -1.515625q2.953125 0 4.203125 -1.078125q1.265625 -1.078125 1.265625 -4.109375l0 -22.53125q0 -3.234375 -1.15625 -4.78125q-1.15625 -1.546875 -4.3125 -1.546875l0 -1.515625q2.296875 0.21875 4.453125 0.21875q2.09375 0 4.0 -0.25q1.90625 -0.265625 3.5 -0.765625l0 8.5q1.859375 -4.890625 5.203125 -6.796875q3.359375 -1.921875 7.03125 -1.921875zm51.48401 0.21875l0 30.09375q0 3.25 1.1875 4.796875q1.1875 1.546875 4.28125 1.546875l0 1.515625q-2.234375 -0.21875 -4.46875 -0.21875q-2.078125 0 -4.0 0.203125q-1.90625 0.21875 -3.484375 0.796875l0 -8.484375q-1.796875 4.671875 -5.078125 6.65625q-3.28125 1.984375 -6.734375 1.984375q-2.515625 0 -4.390625 -0.734375q-1.875 -0.71875 -3.09375 -2.015625q-1.375 -1.4375 -1.875 -3.734375q-0.5 -2.3125 -0.5 -5.6875l0 -18.078125q0 -3.234375 -1.15625 -4.78125q-1.15625 -1.546875 -4.3125 -1.546875l0 -1.515625q2.296875 0.21875 4.453125 0.21875q2.09375 0 4.0 -0.25q1.90625 -0.265625 3.5 -0.765625l0 28.296875q0 2.234375 0.28125 4.109375q0.296875 1.875 1.4375 3.03125q1.15625 1.140625 3.75 1.140625q2.8125 0 5.0 -1.71875q2.203125 -1.734375 3.453125 -4.6875q1.265625 -2.953125 1.265625 -6.625l0 -14.90625q0 -3.234375 -1.15625 -4.78125q-1.15625 -1.546875 -4.3125 -1.546875l0 -1.515625q2.296875 0.21875 4.453125 0.21875q2.09375 0 4.0 -0.25q1.90625 -0.265625 3.5 -0.765625zm59.82251 -18.578125l0 48.609375q0 3.234375 1.1875 4.78125q1.1875 1.546875 4.28125 1.546875l0 1.515625q-2.21875 -0.21875 -4.453125 -0.21875q-2.09375 0 -4.0 0.21875q-1.90625 0.21875 -3.484375 0.796875l0 -48.609375q0 -3.234375 -1.15625 -4.78125q-1.15625 -1.546875 -4.328125 -1.546875l0 -1.515625q2.3125 0.21875 4.46875 0.21875q2.09375 0 4.0 -0.25q1.90625 -0.25 3.484375 -0.765625zm-15.109375 18.359375q3.15625 0 5.921875 1.515625q2.78125 1.515625 3.71875 5.1875l-0.9375 0.71875q-1.0 -3.03125 -3.125 -4.390625q-2.125 -1.375 -5.015625 -1.375q-4.234375 0 -7.078125 4.40625q-2.84375 4.390625 -2.78125 13.53125q0 5.828125 1.109375 9.6875q1.125 3.84375 3.3125 5.75q2.203125 1.90625 5.375 1.90625q3.015625 0 5.46875 -2.59375q2.453125 -2.59375 2.953125 -7.625l0.859375 1.0q-0.578125 5.484375 -3.5 8.4375q-2.90625 2.953125 -7.875 2.953125q-4.453125 0 -7.8125 -2.15625q-3.34375 -2.171875 -5.109375 -6.484375q-1.765625 -4.328125 -1.765625 -10.875q0 -6.5625 2.265625 -10.90625q2.265625 -4.359375 5.96875 -6.515625q3.71875 -2.171875 8.046875 -2.171875zm34.410156 38.59375q-2.953125 0 -5.109375 -1.109375q-2.15625 -1.125 -3.28125 -3.140625q-1.109375 -2.015625 -1.109375 -4.671875q0 -3.171875 1.46875 -5.1875q1.484375 -2.015625 3.78125 -3.234375q2.3125 -1.234375 4.859375 -2.0625q2.5625 -0.828125 4.859375 -1.578125q2.3125 -0.75 3.78125 -1.75q1.484375 -1.015625 1.484375 -2.671875l0 -4.46875q0 -3.03125 -0.90625 -4.609375q-0.90625 -1.578125 -2.421875 -2.109375q-1.5 -0.546875 -3.375 -0.546875q-1.796875 0 -3.859375 0.5q-2.046875 0.5 -3.265625 2.078125q1.359375 0.296875 2.359375 1.453125q1.015625 1.140625 1.015625 2.953125q0 1.796875 -1.15625 2.84375q-1.140625 1.03125 -2.9375 1.03125q-2.09375 0 -3.0625 -1.328125q-0.96875 -1.328125 -0.96875 -2.984375q0 -1.875 0.9375 -3.015625q0.9375 -1.15625 2.375 -2.171875q1.65625 -1.15625 4.28125 -1.984375q2.625 -0.828125 5.9375 -0.828125q2.953125 0 5.03125 0.6875q2.09375 0.6875 3.46875 1.984375q1.875 1.71875 2.4375 4.203125q0.578125 2.484375 0.578125 5.953125l0 20.015625q0 1.796875 0.53125 2.59375q0.546875 0.78125 1.703125 0.78125q0.796875 0 1.515625 -0.359375q0.71875 -0.359375 1.71875 -1.15625l0.796875 1.234375q-1.515625 1.140625 -2.890625 1.90625q-1.359375 0.75 -3.65625 0.75q-2.09375 0 -3.46875 -0.71875q-1.359375 -0.71875 -2.046875 -2.125q-0.671875 -1.40625 -0.671875 -3.5625q-1.953125 3.25 -4.65625 4.828125q-2.6875 1.578125 -6.078125 1.578125zm2.59375 -2.875q2.375 0 4.421875 -1.359375q2.0625 -1.375 3.71875 -4.109375l0 -14.109375q-0.875 1.21875 -2.53125 2.046875q-1.65625 0.828125 -3.609375 1.65625q-1.9375 0.828125 -3.703125 1.953125q-1.75 1.109375 -2.90625 2.90625q-1.15625 1.796875 -1.15625 4.671875q0 2.890625 1.546875 4.625q1.546875 1.71875 4.21875 1.71875zm2.8125 -54.578125q2.796875 0 4.890625 1.765625q2.09375 1.765625 2.09375 4.78125q0 3.109375 -2.09375 4.875q-2.09375 1.75 -4.890625 1.75q-2.734375 0 -4.828125 -1.75q-2.09375 -1.765625 -2.09375 -4.875q0 -3.015625 2.09375 -4.78125q2.09375 -1.765625 4.828125 -1.765625zm0 1.515625q-1.734375 0 -3.328125 1.296875q-1.578125 1.296875 -1.578125 3.8125q0 2.515625 1.578125 3.78125q1.59375 1.265625 3.328125 1.265625q1.796875 0 3.375 -1.265625q1.59375 -1.265625 1.59375 -3.78125q0 -2.515625 -1.59375 -3.8125q-1.578125 -1.296875 -3.375 -1.296875zm32.75766 -0.859375q4.53125 0 7.90625 1.546875q3.390625 1.546875 5.296875 4.46875q1.90625 2.90625 1.90625 6.9375q0 4.03125 -2.046875 7.203125q-2.046875 3.171875 -5.6875 5.375q-3.640625 2.1875 -8.453125 3.40625l0 10.515625l-1.453125 0l0 -11.171875q4.828125 -1.796875 7.203125 -3.953125q2.375 -2.15625 3.203125 -4.671875q0.828125 -2.53125 0.828125 -5.328125q0 -6.84375 -2.8125 -9.859375q-2.796875 -3.03125 -7.265625 -3.03125q-1.71875 0 -3.78125 0.5q-2.046875 0.5 -3.265625 2.09375q1.359375 0.28125 2.1875 1.21875q0.828125 0.9375 0.828125 2.453125q0 1.796875 -1.15625 2.84375q-1.140625 1.03125 -2.796875 1.03125q-1.65625 0 -2.75 -1.078125q-1.078125 -1.078125 -1.078125 -2.734375q0 -1.515625 0.9375 -2.84375q0.9375 -1.328125 2.453125 -2.34375q1.515625 -1.0 3.921875 -1.78125q2.421875 -0.796875 5.875 -0.796875zm-1.734375 48.09375q1.875 0 3.234375 1.375q1.375 1.359375 1.375 3.234375q0 1.859375 -1.375 3.234375q-1.359375 1.375 -3.234375 1.375q-1.875 0 -3.25 -1.375q-1.359375 -1.375 -1.359375 -3.234375q0 -1.875 1.359375 -3.234375q1.375 -1.375 3.25 -1.375z" fill-rule="nonzero"/></g></svg>