<svg version="1.1" viewBox="0.0 0.0 960.0 540.0" fill="none" stroke="none" stroke-linecap="square" stroke-miterlimit="10" xmlns:xlink="http://www.w3.org/1999/xlink" xmlns="http://www.w3.org/2000/svg"><clipPath id="gc6f972163_0_15.0"><path d="m0 0l960.0 0l0 540.0l-960.0 0l0 -540.0z" clip-rule="nonzero"/></clipPath><g clip-path="url(#gc6f972163_0_15.0)"><path fill="#eb1e95" d="m0 0l960.0 0l0 540.0l-960.0 0z" fill-rule="evenodd"/><path fill="#000000" fill-opacity="0.0" d="m51.46982 55.259842l589.8898 0l0 429.48035l-589.8898 0z" fill-rule="evenodd"/><path fill="#ffffff" d="m99.42294 202.15125q-0.296875 2.734375 -0.40625 5.296875q-0.09375 2.546875 -0.09375 3.90625q0 1.734375 0.0625 3.25q0.078125 1.5 0.140625 2.65625l-1.640625 0q-0.515625 -5.03125 -1.375 -7.953125q-0.859375 -2.921875 -3.03125 -4.203125q-2.15625 -1.296875 -6.6875 -1.296875l-4.53125 0q-2.453125 0 -3.71875 0.390625q-1.25 0.390625 -1.6875 1.65625q-0.4375 1.25 -0.4375 3.921875l0 35.71875q0 2.578125 0.53125 3.875q0.546875 1.296875 2.125 1.734375q1.59375 0.4375 4.625 0.578125l0 1.4375q-1.875 -0.140625 -4.765625 -0.171875q-2.875 -0.046875 -5.828125 -0.046875q-2.796875 0 -5.25 0.046875q-2.453125 0.03125 -3.953125 0.171875l0 -1.4375q2.4375 -0.140625 3.6875 -0.578125q1.265625 -0.4375 1.703125 -1.734375q0.4375 -1.296875 0.4375 -3.875l0 -35.71875q0 -2.671875 -0.4375 -3.921875q-0.4375 -1.265625 -1.703125 -1.734375q-1.25 -0.46875 -3.6875 -0.53125l0 -1.4375q2.65625 0.0625 5.609375 0.109375q2.953125 0.03125 5.828125 0.0625q2.890625 0.03125 5.359375 0.03125q2.484375 0 4.078125 0q3.3125 0 7.515625 -0.03125q4.21875 -0.03125 7.53125 -0.171875zm-11.15625 25.34375q0 0 0 0.71875q0 0.71875 0 0.71875l-14.40625 0q0 0 0 -0.71875q0 -0.71875 0 -0.71875l14.40625 0zm1.359375 -9.515625q-0.28125 4.109375 -0.25 6.265625q0.03125 2.15625 0.03125 3.96875q0 1.796875 0.078125 3.953125q0.078125 2.15625 0.359375 6.265625l-1.65625 0q-0.28125 -2.296875 -0.6875 -4.5q-0.390625 -2.203125 -1.734375 -3.59375q-1.328125 -1.40625 -4.484375 -1.40625l0 -1.4375q2.375 0 3.625 -0.96875q1.265625 -0.984375 1.84375 -2.484375q0.578125 -1.515625 0.78125 -3.140625q0.21875 -1.625 0.4375 -2.921875l1.65625 0zm29.818146 -2.953125q4.609375 0 8.28125 2.015625q3.671875 2.015625 5.859375 6.34375q2.203125 4.3125 2.203125 11.234375q0 6.90625 -2.203125 11.1875q-2.1875 4.28125 -5.859375 6.3125q-3.671875 2.015625 -8.28125 2.015625q-4.546875 0 -8.25 -2.015625q-3.703125 -2.03125 -5.90625 -6.3125q-2.1875 -4.28125 -2.1875 -11.1875q0 -6.921875 2.1875 -11.234375q2.203125 -4.328125 5.90625 -6.34375q3.703125 -2.015625 8.25 -2.015625zm0 1.453125q-4.109375 0 -6.734375 4.25q-2.625 4.234375 -2.625 13.890625q0 9.640625 2.625 13.859375q2.625 4.203125 6.734375 4.203125q4.09375 0 6.71875 -4.203125q2.640625 -4.21875 2.640625 -13.859375q0 -9.65625 -2.640625 -13.890625q-2.625 -4.25 -6.71875 -4.25zm7.90625 -16.859375q1.65625 0 2.90625 1.265625q1.265625 1.265625 1.265625 2.921875q0 1.71875 -1.265625 2.953125q-1.25 1.21875 -2.90625 1.21875q-1.734375 0 -2.953125 -1.21875q-1.21875 -1.234375 -1.21875 -2.953125q0 -1.65625 1.21875 -2.921875q1.21875 -1.265625 2.953125 -1.265625zm-15.265625 0q1.65625 0 2.90625 1.265625q1.265625 1.265625 1.265625 2.921875q0 1.71875 -1.265625 2.953125q-1.25 1.21875 -2.90625 1.21875q-1.71875 0 -2.953125 -1.21875q-1.21875 -1.234375 -1.21875 -2.953125q0 -1.65625 1.21875 -2.921875q1.234375 -1.265625 2.953125 -1.265625zm51.565384 15.40625q1.9375 0 3.40625 0.796875q1.484375 0.796875 2.3125 2.0625q0.828125 1.25 0.828125 2.828125q0 1.8125 -1.125 3.1875q-1.109375 1.359375 -2.984375 1.359375q-1.5 0 -2.65625 -0.96875q-1.15625 -0.984375 -1.15625 -2.78125q0 -1.359375 0.75 -2.328125q0.765625 -0.984375 1.703125 -1.5625q-0.5 -0.71875 -1.515625 -0.71875q-2.234375 0 -4.109375 1.34375q-1.859375 1.328125 -3.15625 3.421875q-1.296875 2.078125 -2.015625 4.421875q-0.71875 2.328125 -0.71875 4.34375l0 15.265625q0 3.53125 2.046875 4.71875q2.046875 1.1875 5.578125 1.1875l0 1.515625q-1.65625 -0.078125 -4.6875 -0.171875q-3.015625 -0.109375 -6.40625 -0.109375q-2.4375 0 -4.859375 0.109375q-2.40625 0.09375 -3.625 0.171875l0 -1.515625q2.953125 0 4.203125 -1.078125q1.265625 -1.078125 1.265625 -4.109375l0 -22.53125q0 -3.234375 -1.15625 -4.78125q-1.15625 -1.546875 -4.3125 -1.546875l0 -1.515625q2.296875 0.21875 4.453125 0.21875q2.09375 0 4.0 -0.25q1.90625 -0.265625 3.5 -0.765625l0 9.0q0.78125 -2.078125 2.25 -4.203125q1.484375 -2.125 3.5625 -3.5625q2.09375 -1.453125 4.625 -1.453125zm36.28415 38.59375q-2.953125 0 -5.109375 -1.109375q-2.15625 -1.125 -3.28125 -3.140625q-1.109375 -2.015625 -1.109375 -4.671875q0 -3.171875 1.46875 -5.1875q1.484375 -2.015625 3.78125 -3.234375q2.3125 -1.234375 4.859375 -2.0625q2.5625 -0.828125 4.859375 -1.578125q2.3125 -0.75 3.78125 -1.75q1.484375 -1.015625 1.484375 -2.671875l0 -4.46875q0 -3.03125 -0.90625 -4.609375q-0.90625 -1.578125 -2.421875 -2.109375q-1.5 -0.546875 -3.375 -0.546875q-1.796875 0 -3.859375 0.5q-2.046875 0.5 -3.265625 2.078125q1.359375 0.296875 2.359375 1.453125q1.015625 1.140625 1.015625 2.953125q0 1.796875 -1.15625 2.84375q-1.140625 1.03125 -2.9375 1.03125q-2.09375 0 -3.0625 -1.328125q-0.96875 -1.328125 -0.96875 -2.984375q0 -1.875 0.9375 -3.015625q0.9375 -1.15625 2.375 -2.171875q1.65625 -1.15625 4.28125 -1.984375q2.625 -0.828125 5.9375 -0.828125q2.953125 0 5.03125 0.6875q2.09375 0.6875 3.46875 1.984375q1.875 1.71875 2.4375 4.203125q0.578125 2.484375 0.578125 5.953125l0 20.015625q0 1.796875 0.53125 2.59375q0.546875 0.78125 1.703125 0.78125q0.796875 0 1.515625 -0.359375q0.71875 -0.359375 1.71875 -1.15625l0.796875 1.234375q-1.515625 1.140625 -2.890625 1.90625q-1.359375 0.75 -3.65625 0.75q-2.09375 0 -3.46875 -0.71875q-1.359375 -0.71875 -2.046875 -2.125q-0.671875 -1.40625 -0.671875 -3.5625q-1.953125 3.25 -4.65625 4.828125q-2.6875 1.578125 -6.078125 1.578125zm2.59375 -2.875q2.375 0 4.421875 -1.359375q2.0625 -1.375 3.71875 -4.109375l0 -14.109375q-0.875 1.21875 -2.53125 2.046875q-1.65625 0.828125 -3.609375 1.65625q-1.9375 0.828125 -3.703125 1.953125q-1.75 1.109375 -2.90625 2.90625q-1.15625 1.796875 -1.15625 4.671875q0 2.890625 1.546875 4.625q1.546875 1.71875 4.21875 1.71875zm34.637268 -46.65625l0 12.015625l10.65625 0l0 1.453125l-10.65625 0l0 27.859375q0 3.390625 1.21875 4.765625q1.21875 1.359375 3.375 1.359375q2.171875 0 3.75 -1.765625q1.578125 -1.765625 2.734375 -5.9375l1.4375 0.359375q-0.71875 4.171875 -2.84375 7.0625q-2.125 2.875 -6.515625 2.875q-2.4375 0 -4.03125 -0.625q-1.578125 -0.609375 -2.796875 -1.765625q-1.59375 -1.65625 -2.203125 -3.953125q-0.609375 -2.296875 -0.609375 -6.125l0 -24.109375l-6.921875 0l0 -1.453125l6.921875 0l0 -11.015625q1.796875 -0.0625 3.453125 -0.28125q1.65625 -0.21875 3.03125 -0.71875zm22.607986 0l0 12.015625l10.65625 0l0 1.453125l-10.65625 0l0 27.859375q0 3.390625 1.21875 4.765625q1.21875 1.359375 3.375 1.359375q2.171875 0 3.75 -1.765625q1.578125 -1.765625 2.734375 -5.9375l1.4375 0.359375q-0.71875 4.171875 -2.84375 7.0625q-2.125 2.875 -6.515625 2.875q-2.4375 0 -4.03125 -0.625q-1.578125 -0.609375 -2.796875 -1.765625q-1.5937347 -1.65625 -2.2031097 -3.953125q-0.609375 -2.296875 -0.609375 -6.125l0 -24.109375l-6.921875 0l0 -1.453125l6.921875 0l0 -11.015625q1.796875 -0.0625 3.4531097 -0.28125q1.65625 -0.21875 3.03125 -0.71875zm54.785797 -7.265625q2.015625 0 3.8125 0.28125q1.796875 0.28125 3.3125 0.75q1.515625 0.46875 2.515625 1.125q1.15625 0.71875 1.796875 1.6875q0.65625 0.96875 0.65625 2.265625q0 1.953125 -1.375 3.328125q-1.359375 1.359375 -3.234375 1.359375q-1.875 0 -3.25 -1.359375q-1.359375 -1.375 -1.359375 -3.25q0 -1.296875 0.640625 -2.375q0.65625 -1.078125 1.734375 -1.65625q-0.9375 -0.578125 -2.375 -0.828125q-1.4375 -0.25 -2.875 -0.25q-3.75 0 -6.265625 1.515625q-2.5156555 1.5 -3.9531555 4.015625q-1.015625 1.8125 -1.484375 4.625q-0.46875 2.796875 -0.46875 8.046875l11.5937805 0q2.875 0 4.96875 -0.0625q2.09375 -0.078125 3.75 -0.25q1.65625 -0.1875 3.234375 -0.546875l0 31.171875q0 3.03125 1.25 4.109375q1.265625 1.078125 4.21875 1.078125l0 1.515625q-1.21875 -0.078125 -3.703125 -0.171875q-2.484375 -0.109375 -5.0 -0.109375q-2.453125 0 -4.984375 0.109375q-2.515625 0.09375 -3.734375 0.171875l0 -1.515625q2.953125 0 4.203125 -1.078125q1.265625 -1.078125 1.265625 -4.109375l0 -22.53125q0 -3.234375 -1.15625 -4.78125q-1.140625 -1.546875 -4.3125 -1.546875l-11.5937805 0l0 28.859375q0 3.109375 1.65625 4.15625q1.65625 1.03125 4.5312805 1.03125l0 1.515625q-1.4375305 -0.078125 -4.0625305 -0.171875q-2.625 -0.109375 -5.359375 -0.109375q-2.671875 0 -5.078125 0.109375q-2.40625 0.09375 -3.640625 0.171875l0 -1.515625q2.953125 0 4.203125 -1.078125q1.265625 -1.078125 1.265625 -4.109375l0 -28.859375l-5.75 0l0 -1.453125l5.75 0q0 -4.59375 1.1875 -8.265625q1.203125 -3.671875 4.0 -6.34375q2.09375 -1.9375 5.40625 -3.296875q3.3125305 -1.375 8.0625305 -1.375zm42.91513 18.203125q1.9375 0 3.40625 0.796875q1.484375 0.796875 2.3125 2.0625q0.828125 1.25 0.828125 2.828125q0 1.8125 -1.125 3.1875q-1.109375 1.359375 -2.984375 1.359375q-1.5 0 -2.65625 -0.96875q-1.15625 -0.984375 -1.15625 -2.78125q0 -1.359375 0.75 -2.328125q0.765625 -0.984375 1.703125 -1.5625q-0.5 -0.71875 -1.515625 -0.71875q-2.234375 0 -4.109375 1.34375q-1.859375 1.328125 -3.15625 3.421875q-1.296875 2.078125 -2.015625 4.421875q-0.71875 2.328125 -0.71875 4.34375l0 15.265625q0 3.53125 2.046875 4.71875q2.046875 1.1875 5.578125 1.1875l0 1.515625q-1.65625 -0.078125 -4.6875 -0.171875q-3.015625 -0.109375 -6.40625 -0.109375q-2.4375 0 -4.859375 0.109375q-2.40625 0.09375 -3.625 0.171875l0 -1.515625q2.953125 0 4.203125 -1.078125q1.265625 -1.078125 1.265625 -4.109375l0 -22.53125q0 -3.234375 -1.15625 -4.78125q-1.15625 -1.546875 -4.3125 -1.546875l0 -1.515625q2.296875 0.21875 4.453125 0.21875q2.09375 0 4.0 -0.25q1.90625 -0.265625 3.5 -0.765625l0 9.0q0.78125 -2.078125 2.25 -4.203125q1.484375 -2.125 3.5625 -3.5625q2.09375 -1.453125 4.625 -1.453125zm19.868134 38.59375q-2.953125 0 -5.109375 -1.109375q-2.15625 -1.125 -3.28125 -3.140625q-1.109375 -2.015625 -1.109375 -4.671875q0 -3.171875 1.46875 -5.1875q1.484375 -2.015625 3.78125 -3.234375q2.3125 -1.234375 4.859375 -2.0625q2.5625 -0.828125 4.859375 -1.578125q2.3125 -0.75 3.78125 -1.75q1.484375 -1.015625 1.484375 -2.671875l0 -4.46875q0 -3.03125 -0.90625 -4.609375q-0.90625 -1.578125 -2.421875 -2.109375q-1.5 -0.546875 -3.375 -0.546875q-1.796875 0 -3.859375 0.5q-2.046875 0.5 -3.265625 2.078125q1.359375 0.296875 2.359375 1.453125q1.015625 1.140625 1.015625 2.953125q0 1.796875 -1.15625 2.84375q-1.140625 1.03125 -2.9375 1.03125q-2.09375 0 -3.0625 -1.328125q-0.96875 -1.328125 -0.96875 -2.984375q0 -1.875 0.9375 -3.015625q0.9375 -1.15625 2.375 -2.171875q1.65625 -1.15625 4.28125 -1.984375q2.625 -0.828125 5.9375 -0.828125q2.953125 0 5.03125 0.6875q2.09375 0.6875 3.46875 1.984375q1.875 1.71875 2.4375 4.203125q0.578125 2.484375 0.578125 5.953125l0 20.015625q0 1.796875 0.53125 2.59375q0.546875 0.78125 1.703125 0.78125q0.796875 0 1.515625 -0.359375q0.71875 -0.359375 1.71875 -1.15625l0.796875 1.234375q-1.515625 1.140625 -2.890625 1.90625q-1.359375 0.75 -3.65625 0.75q-2.09375 0 -3.46875 -0.71875q-1.359375 -0.71875 -2.046875 -2.125q-0.671875 -1.40625 -0.671875 -3.5625q-1.953125 3.25 -4.65625 4.828125q-2.6875 1.578125 -6.078125 1.578125zm2.59375 -2.875q2.375 0 4.421875 -1.359375q2.0625 -1.375 3.71875 -4.109375l0 -14.109375q-0.875 1.21875 -2.53125 2.046875q-1.65625 0.828125 -3.609375 1.65625q-1.9375 0.828125 -3.703125 1.953125q-1.75 1.109375 -2.90625 2.90625q-1.15625 1.796875 -1.15625 4.671875q0 2.890625 1.546875 4.625q1.546875 1.71875 4.21875 1.71875zm66.38876 -49.6875l0.28125 1.453125q-2.375 0.78125 -4.859375 2.015625q-2.484375 1.21875 -4.796875 3.375q-2.296875 2.15625 -4.09375 5.515625q-1.796875 3.34375 -2.890625 8.28125q-1.078125 4.921875 -1.078125 11.84375q0 7.546875 1.296875 11.734375q1.296875 4.171875 3.234375 5.796875q1.953125 1.609375 3.90625 1.609375q2.15625 0 3.984375 -1.46875q1.84375 -1.484375 2.984375 -4.796875q1.15625 -3.3125 1.15625 -8.640625q0 -5.171875 -1.046875 -8.265625q-1.03125 -3.109375 -2.796875 -4.46875q-1.765625 -1.375 -3.921875 -1.375q-1.59375 0 -3.46875 0.71875q-1.859375 0.71875 -3.453125 2.421875q-1.578125 1.6875 -2.296875 4.78125l-0.71875 0.4375q0.5 -4.03125 2.515625 -6.296875q2.015625 -2.265625 4.5625 -3.203125q2.5625 -0.9375 4.65625 -0.9375q3.375 0 6.328125 1.84375q2.953125 1.828125 4.78125 5.328125q1.84375 3.484375 1.84375 8.515625q0 5.40625 -2.15625 9.1875q-2.15625 3.78125 -5.765625 5.734375q-3.59375 1.9375 -7.921875 1.9375q-6.828125 0 -10.765625 -5.359375q-3.921875 -5.375 -3.921875 -15.09375q0 -6.546875 1.578125 -11.59375q1.59375 -5.046875 4.21875 -8.75q2.640625 -3.703125 5.84375 -6.21875q3.203125 -2.53125 6.546875 -4.0q3.34375 -1.484375 6.234375 -2.0625z" fill-rule="nonzero"/><path fill="#ffffff" d="m95.31357 282.6669l0 48.609375q0 3.234375 1.1875 4.78125q1.1875 1.546875 4.28125 1.546875l0 1.515625q-2.21875 -0.21875 -4.453125 -0.21875q-2.09375 0 -4.0 0.21875q-1.90625 0.21875 -3.484375 0.796875l0 -48.609375q0 -3.234375 -1.15625 -4.78125q-1.15625 -1.546875 -4.328125 -1.546875l0 -1.515625q2.3125 0.21875 4.46875 0.21875q2.09375 0 4.0 -0.25q1.90625 -0.25 3.484375 -0.765625zm-15.109375 18.359375q3.15625 0 5.921875 1.515625q2.78125 1.515625 3.71875 5.1875l-0.9375 0.71875q-1.0 -3.03125 -3.125 -4.390625q-2.125 -1.375 -5.015625 -1.375q-4.234375 0 -7.078125 4.40625q-2.84375 4.390625 -2.78125 13.53125q0 5.828125 1.109375 9.6875q1.125 3.84375 3.3125 5.75q2.203125 1.90625 5.375 1.90625q3.015625 0 5.46875 -2.59375q2.453125 -2.59375 2.953125 -7.625l0.859375 1.0q-0.578125 5.484375 -3.5 8.4375q-2.90625 2.953125 -7.875 2.953125q-4.453125 0 -7.8125 -2.15625q-3.34375 -2.171875 -5.109375 -6.484375q-1.765625 -4.328125 -1.765625 -10.875q0 -6.5625 2.265625 -10.90625q2.265625 -4.359375 5.96875 -6.515625q3.71875 -2.171875 8.046875 -2.171875zm41.675766 0q6.34375 0 9.90625 3.859375q3.5625 3.84375 3.5625 11.984375l-25.421875 0l-0.0625 -1.359375l18.578125 0q0.140625 -3.53125 -0.578125 -6.515625q-0.71875 -3.0 -2.265625 -4.796875q-1.546875 -1.796875 -4.0 -1.796875q-3.3125 0 -5.875 3.3125q-2.546875 3.3125 -3.046875 10.515625l0.203125 0.28125q-0.140625 1.078125 -0.21875 2.375q-0.0625 1.296875 -0.0625 2.59375q0 4.890625 1.578125 8.421875q1.59375 3.53125 4.140625 5.375q2.5625 1.828125 5.296875 1.828125q2.15625 0 4.09375 -0.6875q1.953125 -0.6875 3.609375 -2.265625q1.65625 -1.578125 2.875 -4.25l1.453125 0.578125q-0.796875 2.375 -2.609375 4.609375q-1.796875 2.234375 -4.53125 3.640625q-2.734375 1.40625 -6.328125 1.40625q-5.1875 0 -8.90625 -2.375q-3.703125 -2.390625 -5.6875 -6.59375q-1.96875 -4.21875 -1.96875 -9.6875q0 -6.328125 2.015625 -10.90625q2.015625 -4.578125 5.6875 -7.0625q3.671875 -2.484375 8.5625 -2.484375zm36.94763 0q2.296875 0 4.453125 0.578125q2.171875 0.578125 3.890625 1.734375q1.65625 1.078125 2.515625 2.484375q0.875 1.40625 0.875 3.0625q0 1.9375 -1.09375 2.984375q-1.078125 1.046875 -2.71875 1.046875q-1.59375 0 -2.78125 -0.9375q-1.1875 -0.9375 -1.1875 -2.671875q0 -1.65625 0.890625 -2.65625q0.90625 -1.015625 2.140625 -1.296875q-0.71875 -1.296875 -2.5625 -2.15625q-1.828125 -0.875 -3.921875 -0.875q-1.796875 0 -3.609375 0.875q-1.796875 0.859375 -3.3125 2.84375q-1.5 1.96875 -2.4375 5.390625q-0.9375 3.421875 -0.9375 8.53125q0 6.34375 1.4375 10.09375q1.4375 3.734375 3.78125 5.359375q2.34375 1.609375 5.140625 1.609375q1.875 0 3.8125 -0.71875q1.953125 -0.71875 3.671875 -2.328125q1.734375 -1.625 2.96875 -4.359375l1.359375 0.5q-0.71875 2.296875 -2.375 4.640625q-1.65625 2.34375 -4.328125 3.859375q-2.65625 1.515625 -6.546875 1.515625q-4.453125 0 -8.0625 -2.296875q-3.59375 -2.3125 -5.71875 -6.59375q-2.125 -4.296875 -2.125 -10.203125q0 -5.890625 2.125 -10.390625q2.125 -4.5 5.9375 -7.0625q3.8125 -2.5625 8.71875 -2.5625zm34.476395 0q6.34375 0 9.90625 3.859375q3.5625 3.84375 3.5625 11.984375l-25.421875 0l-0.0625 -1.359375l18.578125 0q0.140625 -3.53125 -0.578125 -6.515625q-0.71875 -3.0 -2.265625 -4.796875q-1.546875 -1.796875 -4.0 -1.796875q-3.3125 0 -5.875 3.3125q-2.546875 3.3125 -3.046875 10.515625l0.203125 0.28125q-0.140625 1.078125 -0.21875 2.375q-0.0625 1.296875 -0.0625 2.59375q0 4.890625 1.578125 8.421875q1.59375 3.53125 4.140625 5.375q2.5625 1.828125 5.296875 1.828125q2.15625 0 4.09375 -0.6875q1.953125 -0.6875 3.609375 -2.265625q1.65625 -1.578125 2.875 -4.25l1.453125 0.578125q-0.796875 2.375 -2.609375 4.609375q-1.796875 2.234375 -4.53125 3.640625q-2.734375 1.40625 -6.328125 1.40625q-5.1875 0 -8.90625 -2.375q-3.703125 -2.390625 -5.6875 -6.59375q-1.96875 -4.21875 -1.96875 -9.6875q0 -6.328125 2.015625 -10.90625q2.015625 -4.578125 5.6875 -7.0625q3.671875 -2.484375 8.5625 -2.484375zm43.13513 0q2.734375 0 4.5625 0.734375q1.84375 0.71875 3.0625 2.0q1.375 1.453125 1.953125 3.609375q0.578125 2.15625 0.578125 5.828125l0 19.21875q0 3.03125 1.25 4.109375q1.265625 1.078125 4.21875 1.078125l0 1.515625q-1.21875 -0.078125 -3.75 -0.171875q-2.515625 -0.109375 -4.890625 -0.109375q-2.375 0 -4.640625 0.109375q-2.265625 0.09375 -3.421875 0.171875l0 -1.515625q2.59375 0 3.671875 -1.078125q1.078125 -1.078125 1.078125 -4.109375l0 -20.796875q0 -2.234375 -0.359375 -4.109375q-0.359375 -1.875 -1.625 -3.015625q-1.25 -1.15625 -3.84375 -1.15625q-3.03125 0 -5.296875 1.734375q-2.265625 1.71875 -3.53125 4.703125q-1.25 2.984375 -1.25 6.65625l0 15.984375q0 3.03125 1.078125 4.109375q1.078125 1.078125 3.671875 1.078125l0 1.515625q-1.15625 -0.078125 -3.421875 -0.171875q-2.265625 -0.109375 -4.640625 -0.109375q-2.375 0 -4.90625 0.109375q-2.515625 0.09375 -3.734375 0.171875l0 -1.515625q2.953125 0 4.203125 -1.078125q1.265625 -1.078125 1.265625 -4.109375l0 -22.53125q0 -3.234375 -1.15625 -4.78125q-1.15625 -1.546875 -4.3125 -1.546875l0 -1.515625q2.296875 0.21875 4.453125 0.21875q2.09375 0 4.0 -0.25q1.90625 -0.265625 3.5 -0.765625l0 8.5q1.859375 -4.890625 5.203125 -6.796875q3.359375 -1.921875 7.03125 -1.921875zm42.98401 0q2.734375 0 4.5625 0.734375q1.84375 0.71875 3.0625 2.0q1.375 1.453125 1.953125 3.609375q0.578125 2.15625 0.578125 5.828125l0 19.21875q0 3.03125 1.25 4.109375q1.265625 1.078125 4.21875 1.078125l0 1.515625q-1.21875 -0.078125 -3.75 -0.171875q-2.515625 -0.109375 -4.890625 -0.109375q-2.375 0 -4.640625 0.109375q-2.265625 0.09375 -3.421875 0.171875l0 -1.515625q2.59375 0 3.671875 -1.078125q1.078125 -1.078125 1.078125 -4.109375l0 -20.796875q0 -2.234375 -0.359375 -4.109375q-0.359375 -1.875 -1.625 -3.015625q-1.25 -1.15625 -3.84375 -1.15625q-3.03125 0 -5.296875 1.734375q-2.265625 1.71875 -3.53125 4.703125q-1.25 2.984375 -1.25 6.65625l0 15.984375q0 3.03125 1.078125 4.109375q1.078125 1.078125 3.671875 1.078125l0 1.515625q-1.15625 -0.078125 -3.421875 -0.171875q-2.265625 -0.109375 -4.640625 -0.109375q-2.375 0 -4.90625 0.109375q-2.515625 0.09375 -3.734375 0.171875l0 -1.515625q2.953125 0 4.203125 -1.078125q1.265625 -1.078125 1.265625 -4.109375l0 -22.53125q0 -3.234375 -1.15625 -4.78125q-1.15625 -1.546875 -4.3125 -1.546875l0 -1.515625q2.296875 0.21875 4.453125 0.21875q2.09375 0 4.0 -0.25q1.90625 -0.265625 3.5 -0.765625l0 8.5q1.859375 -4.890625 5.203125 -6.796875q3.359375 -1.921875 7.03125 -1.921875zm26.999634 -16.984375q1.875 0 3.234375 1.375q1.375 1.359375 1.375 3.234375q0 1.875 -1.375 3.25q-1.359375 1.359375 -3.234375 1.359375q-1.875 0 -3.25 -1.359375q-1.359375 -1.375 -1.359375 -3.25q0 -1.875 1.359375 -3.234375q1.375 -1.375 3.25 -1.375zm3.75 17.203125l0 31.171875q0 3.03125 1.25 4.109375q1.265625 1.078125 4.21875 1.078125l0 1.515625q-1.234375 -0.078125 -3.71875 -0.171875q-2.484375 -0.109375 -5.0 -0.109375q-2.4375 0 -4.96875 0.109375q-2.515625 0.09375 -3.734375 0.171875l0 -1.515625q2.953125 0 4.203125 -1.078125q1.265625 -1.078125 1.265625 -4.109375l0 -22.53125q0 -3.234375 -1.15625 -4.78125q-1.15625 -1.546875 -4.3125 -1.546875l0 -1.515625q2.296875 0.21875 4.453125 0.21875q2.09375 0 4.0 -0.25q1.90625 -0.265625 3.5 -0.765625zm26.627258 -0.21875q6.34375 0 9.90625 3.859375q3.5625 3.84375 3.5625 11.984375l-25.421875 0l-0.0625 -1.359375l18.578125 0q0.140625 -3.53125 -0.578125 -6.515625q-0.71875 -3.0 -2.265625 -4.796875q-1.546875 -1.796875 -4.0 -1.796875q-3.3125 0 -5.875 3.3125q-2.546875 3.3125 -3.046875 10.515625l0.203125 0.28125q-0.140625 1.078125 -0.21875 2.375q-0.0625 1.296875 -0.0625 2.59375q0 4.890625 1.578125 8.421875q1.59375 3.53125 4.140625 5.375q2.5625 1.828125 5.296875 1.828125q2.15625 0 4.09375 -0.6875q1.953125 -0.6875 3.609375 -2.265625q1.65625 -1.578125 2.875 -4.25l1.453125 0.578125q-0.796875 2.375 -2.609375 4.609375q-1.796875 2.234375 -4.53125 3.640625q-2.734375 1.40625 -6.328125 1.40625q-5.1875 0 -8.90625 -2.375q-3.703125 -2.390625 -5.6875 -6.59375q-1.96875 -4.21875 -1.96875 -9.6875q0 -6.328125 2.015625 -10.90625q2.015625 -4.578125 5.6875 -7.0625q3.671875 -2.484375 8.5625 -2.484375zm41.338257 0q1.9375 0 3.40625 0.796875q1.484375 0.796875 2.3125 2.0625q0.828125 1.25 0.828125 2.828125q0 1.8125 -1.125 3.1875q-1.109375 1.359375 -2.984375 1.359375q-1.5 0 -2.65625 -0.96875q-1.15625 -0.984375 -1.15625 -2.78125q0 -1.359375 0.75 -2.328125q0.765625 -0.984375 1.703125 -1.5625q-0.5 -0.71875 -1.515625 -0.71875q-2.234375 0 -4.109375 1.34375q-1.859375 1.328125 -3.15625 3.421875q-1.296875 2.078125 -2.015625 4.421875q-0.71875 2.328125 -0.71875 4.34375l0 15.265625q0 3.53125 2.046875 4.71875q2.046875 1.1875 5.578125 1.1875l0 1.515625q-1.65625 -0.078125 -4.6875 -0.171875q-3.015625 -0.109375 -6.40625 -0.109375q-2.4375 0 -4.859375 0.109375q-2.40625 0.09375 -3.625 0.171875l0 -1.515625q2.953125 0 4.203125 -1.078125q1.265625 -1.078125 1.265625 -4.109375l0 -22.53125q0 -3.234375 -1.15625 -4.78125q-1.15625 -1.546875 -4.3125 -1.546875l0 -1.515625q2.296875 0.21875 4.453125 0.21875q2.09375 0 4.0 -0.25q1.90625 -0.265625 3.5 -0.765625l0 9.0q0.78125 -2.078125 2.25 -4.203125q1.484375 -2.125 3.5625 -3.5625q2.09375 -1.453125 4.625 -1.453125zm13.969757 29.890625q1.859375 0 3.234375 1.375q1.375 1.359375 1.375 3.234375q0 1.859375 -1.375 3.234375q-1.375 1.375 -3.234375 1.375q-1.875 0 -3.25 -1.375q-1.359375 -1.375 -1.359375 -3.234375q0 -1.875 1.359375 -3.234375q1.375 -1.375 3.25 -1.375zm20.234375 0q1.859375 0 3.234375 1.375q1.375 1.359375 1.375 3.234375q0 1.859375 -1.375 3.234375q-1.375 1.375 -3.234375 1.375q-1.875 0 -3.25 -1.375q-1.359375 -1.375 -1.359375 -3.234375q0 -1.875 1.359375 -3.234375q1.375 -1.375 3.25 -1.375zm20.15625 0q1.859375 0 3.234375 1.375q1.375 1.359375 1.375 3.234375q0 1.859375 -1.375 3.234375q-1.375 1.375 -3.234375 1.375q-1.875 0 -3.25 -1.375q-1.359375 -1.375 -1.359375 -3.234375q0 -1.875 1.359375 -3.234375q1.375 -1.375 3.25 -1.375z" fill-rule="nonzero"/></g></svg>